# xmcd
#
# Track frame offsets:
#	182
#	12225
#	36712
#	63372
#	77817
#	110507
#	138307
#	184750
#	210752
#	232652
#	263472
#	281547
#
# Disc length: 4445 seconds
#
# Revision: 5
# Processed by: cddbd v1.4PL0 Copyright (c) Steve Scherf et al.
# Submitted via: dBpowerAMP V4.0
#
DISCID=99115b0c
DTITLE=Stevie Ray Vaughan - One oF The Last
DYEAR=1990
DGENRE=Blues
TTITLE0=House is a - rockin'
TTITLE1=Tightrope
TTITLE2=Little sister
TTITLE3=Let me love you
TTITLE4=Texas Flood
TTITLE5=Leave my little girl alone
TTITLE6=Riviera Paradise
TTITLE7=Wall of denial
TTITLE8=Superstition
TTITLE9=Cold shot
TTITLE10=Crossfire
TTITLE11=Voodoo chile
EXTD=
EXTT0=
EXTT1=
EXTT2=
EXTT3=
EXTT4=
EXTT5=
EXTT6=
EXTT7=
EXTT8=
EXTT9=
EXTT10=
EXTT11=
PLAYORDER=
